<svg xmlns="http://www.w3.org/2000/svg" viewBox="0 0 320 240" role="img" aria-labelledby="title desc">
  <title id="title">企画資料を整理するイラスト</title>
  <desc id="desc">フォルダー、カード、チェックマークを組み合わせた装飾イラスト</desc>
  <defs>
    <filter id="shadow" x="-20%" y="-20%" width="140%" height="160%"><feDropShadow dx="0" dy="8" stdDeviation="8" flood-color="#203527" flood-opacity=".12"/></filter>
  </defs>
  <path d="M36 76c0-14 11-25 25-25h72l18 21h108c14 0 25 11 25 25v89c0 14-11 25-25 25H61c-14 0-25-11-25-25z" fill="#d7edcf"/>
  <path d="M36 93h248v25H36z" fill="#f7fbf3" opacity=".92"/>
  <rect x="69" y="37" width="107" height="132" rx="18" fill="#fffdf8" filter="url(#shadow)" transform="rotate(-8 69 37)"/>
  <rect x="91" y="63" width="59" height="10" rx="5" fill="#43664b" opacity=".86" transform="rotate(-8 91 63)"/>
  <rect x="86" y="84" width="73" height="7" rx="3.5" fill="#c8d4c5" transform="rotate(-8 86 84)"/>
  <rect x="83" y="101" width="58" height="7" rx="3.5" fill="#c8d4c5" transform="rotate(-8 83 101)"/>
  <rect x="80" y="119" width="69" height="28" rx="8" fill="#f2d6b6" transform="rotate(-8 80 119)"/>
  <rect x="154" y="54" width="104" height="139" rx="20" fill="#fffdf8" filter="url(#shadow)" transform="rotate(7 154 54)"/>
  <circle cx="204" cy="92" r="22" fill="#f2d6b6"/>
  <path d="m194 92 7 7 14-16" fill="none" stroke="#745b34" stroke-width="7" stroke-linecap="round" stroke-linejoin="round"/>
  <rect x="176" y="126" width="61" height="8" rx="4" fill="#43664b" opacity=".82" transform="rotate(7 176 126)"/>
  <rect x="174" y="144" width="48" height="7" rx="3.5" fill="#c8d4c5" transform="rotate(7 174 144)"/>
  <circle cx="58" cy="47" r="16" fill="#ea8c62"/>
  <path d="M50 47h16M58 39v16" stroke="#fff" stroke-width="4" stroke-linecap="round"/>
  <path d="M274 37c13 0 24 11 24 24s-11 24-24 24-24-11-24-24 11-24 24-24" fill="#43664b"/>
  <path d="M267 61h14M274 54v14" stroke="#d7edcf" stroke-width="4" stroke-linecap="round"/>
  <path d="M52 208c27 10 58 15 91 15 43 0 82-8 111-22" fill="none" stroke="#6f806d" stroke-width="4" stroke-linecap="round" opacity=".35"/>
</svg>
